<?xml version="1.0" encoding="UTF-8"?>
<svg id="Calque_2" data-name="Calque 2" xmlns="http://www.w3.org/2000/svg" xmlns:xlink="http://www.w3.org/1999/xlink" viewBox="0 0 512 512">
  <defs>
    <style>
      .cls-1 {
        fill: #1e1a3b;
      }

      .cls-2 {
        fill: url(#Dégradé_sans_nom_14);
      }

      .cls-3 {
        fill: #68388d;
      }
    </style>
    <linearGradient id="Dégradé_sans_nom_14" data-name="Dégradé sans nom 14" x1="78.02" y1="256" x2="340.67" y2="256" gradientUnits="userSpaceOnUse">
      <stop offset="0" stop-color="#ef7a35"/>
      <stop offset="1" stop-color="#ae4090"/>
    </linearGradient>
  </defs>
  <g id="Calque_1-2" data-name="Calque 1">
    <rect class="cls-1" width="512" height="512"/>
    <g>
      <path class="cls-2" d="M313.93,209.68L125.61,100.95c-21.15-12.21-47.59,3.05-47.59,27.48v255.13c0,24.43,26.44,39.69,47.59,27.48l188.32-108.73c35.66-20.59,35.66-72.05,0-92.64ZM257.88,268.46l-100.21,57.86c-9.59,5.54-21.59-1.38-21.59-12.46v-115.71c0-11.08,11.99-18,21.59-12.46l100.21,57.86c9.59,5.54,9.59,19.39,0,24.93Z"/>
      <path class="cls-3" d="M313.93,209.68c17.64,10.19,26.54,27.93,26.72,45.76.08,8.17.08,16.35,0,24.52-.18,17.83-9.07,35.57-26.72,45.76l-62.7,36.2h162.64c11.1,0,20.11-9,20.11-20.11v-173.55c0-11.1-9-20.11-20.11-20.11h-173.55c-7.11,0-13.34,3.7-16.91,9.26l90.51,52.26ZM415.07,325.64c0,4.47-3.63,8.1-8.1,8.1h-12.9c-4.47,0-8.1-3.63-8.1-8.1v-12.9c0-4.47,3.63-8.1,8.1-8.1h12.9c4.47,0,8.1,3.63,8.1,8.1v12.9ZM415.07,261.49c0,4.47-3.63,8.1-8.1,8.1h-12.9c-4.47,0-8.1-3.63-8.1-8.1v-12.9c0-4.47,3.63-8.1,8.1-8.1h12.9c4.47,0,8.1,3.63,8.1,8.1v12.9ZM415.07,197.33c0,4.47-3.63,8.1-8.1,8.1h-12.9c-4.47,0-8.1-3.63-8.1-8.1v-12.9c0-4.47,3.63-8.1,8.1-8.1h12.9c4.47,0,8.1,3.63,8.1,8.1v12.9Z"/>
    </g>
  </g>
</svg>