<?xml version="1.0" encoding="UTF-8"?>
<svg id="Calque_2" data-name="Calque 2" xmlns="http://www.w3.org/2000/svg" xmlns:xlink="http://www.w3.org/1999/xlink" viewBox="0 0 289.2 136.16">
  <defs>
    <style>
      .cls-1 {
        fill: url(#Dégradé_sans_nom_14);
      }

      .cls-2 {
        fill: #68388d;
      }

      .cls-3 {
        fill: #fff;
      }
    </style>
    <linearGradient id="Dégradé_sans_nom_14" data-name="Dégradé sans nom 14" x1="103.33" y1="36.95" x2="164.23" y2="36.95" gradientUnits="userSpaceOnUse">
      <stop offset="0" stop-color="#ef7a35"/>
      <stop offset="1" stop-color="#ae4090"/>
    </linearGradient>
  </defs>
  <g id="Calque_1-2" data-name="Calque 1">
    <g>
      <g>
        <path class="cls-3" d="M34.57,116.78c1.53,2,2.3,4.28,2.3,6.84,0,3.78-1.3,6.74-3.91,8.89-2.61,2.14-6.26,3.21-10.97,3.21H0v-44.43h21.3c4.54,0,8.1,1.01,10.68,3.02,2.58,2.02,3.88,4.85,3.88,8.51,0,2.61-.68,4.78-2.05,6.52-1.37,1.74-3.18,2.93-5.45,3.56,2.6.59,4.67,1.88,6.21,3.88ZM12.35,108.94h6.24c3.11,0,4.66-1.28,4.66-3.84s-1.55-3.97-4.66-3.97h-6.24v7.81ZM24.2,121.86c0-1.34-.41-2.37-1.23-3.09-.82-.71-1.99-1.07-3.5-1.07h-7.12v8.07h7.18c3.11,0,4.66-1.3,4.66-3.91Z"/>
        <path class="cls-3" d="M54.64,89.09v46.64h-12.35v-46.64h12.35Z"/>
        <path class="cls-3" d="M62.67,95.29c-1.32-1.2-1.99-2.7-1.99-4.51s.66-3.38,1.99-4.6c1.32-1.22,3.08-1.83,5.26-1.83s3.88.61,5.2,1.83c1.32,1.22,1.99,2.75,1.99,4.6s-.66,3.31-1.99,4.51-3.06,1.8-5.2,1.8-3.94-.6-5.26-1.8ZM74.05,100.37v35.35h-12.35v-35.35h12.35Z"/>
        <path class="cls-3" d="M113.94,104.12c2.39,2.71,3.59,6.38,3.59,11v20.61h-12.35v-18.97c0-2.02-.53-3.6-1.58-4.76-1.05-1.16-2.46-1.73-4.22-1.73s-3.3.58-4.35,1.73c-1.05,1.16-1.58,2.74-1.58,4.76v18.97h-12.35v-35.35h12.35v5.04c1.09-1.6,2.56-2.89,4.41-3.88,1.85-.99,3.97-1.48,6.37-1.48,4.07,0,7.31,1.35,9.71,4.06Z"/>
        <path class="cls-3" d="M124.31,108.43c1.32-2.73,3.14-4.83,5.45-6.3,2.31-1.47,4.87-2.21,7.69-2.21,2.27,0,4.3.47,6.08,1.42,1.79.95,3.18,2.24,4.19,3.88v-16.13h12.41v46.64h-12.41v-4.92c-.97,1.64-2.33,2.94-4.1,3.91-1.76.97-3.84,1.45-6.24,1.45-2.82,0-5.37-.73-7.66-2.21-2.29-1.47-4.1-3.58-5.42-6.33-1.32-2.75-1.99-5.96-1.99-9.61s.66-6.85,1.99-9.58ZM145.92,112.65c-1.24-1.3-2.76-1.95-4.57-1.95s-3.38.64-4.6,1.92c-1.22,1.28-1.83,3.08-1.83,5.39s.61,4.06,1.83,5.39c1.22,1.32,2.75,1.99,4.6,1.99s3.33-.65,4.57-1.95c1.24-1.3,1.86-3.11,1.86-5.42s-.62-4.05-1.86-5.36Z"/>
        <path class="cls-3" d="M188.05,125.2v10.52h-5.36c-9.03,0-13.55-4.47-13.55-13.42v-11.66h-4.35v-10.27h4.35v-8.57h12.41v8.57h6.43v10.27h-6.43v11.85c0,.97.22,1.66.66,2.08.44.42,1.19.63,2.24.63h3.59Z"/>
        <path class="cls-3" d="M227.31,120.53h-23.38c.13,1.93.66,3.37,1.61,4.32s2.15,1.42,3.62,1.42c2.06,0,3.53-.92,4.41-2.77h13.17c-.55,2.44-1.61,4.61-3.18,6.52-1.58,1.91-3.56,3.41-5.96,4.51-2.39,1.09-5.04,1.64-7.94,1.64-3.49,0-6.59-.73-9.3-2.21-2.71-1.47-4.83-3.57-6.37-6.3-1.53-2.73-2.3-5.94-2.3-9.64s.76-6.9,2.27-9.61c1.51-2.71,3.62-4.8,6.33-6.27,2.71-1.47,5.83-2.21,9.36-2.21s6.58.71,9.26,2.14c2.69,1.43,4.79,3.48,6.3,6.14,1.51,2.67,2.27,5.81,2.27,9.42,0,.97-.06,1.93-.19,2.9ZM214.9,114.55c0-1.51-.5-2.7-1.51-3.56-1.01-.86-2.27-1.29-3.78-1.29s-2.75.41-3.72,1.23c-.97.82-1.6,2.03-1.89,3.62h10.9Z"/>
        <path class="cls-3" d="M239.07,134.55c-2.5-1.07-4.47-2.54-5.92-4.41-1.45-1.87-2.26-3.98-2.43-6.33h11.97c.17,1.13.69,2.02,1.58,2.65.88.63,1.97.95,3.28.95,1.01,0,1.81-.21,2.39-.63.59-.42.88-.97.88-1.64,0-.88-.48-1.53-1.45-1.95-.97-.42-2.56-.88-4.79-1.39-2.52-.5-4.62-1.07-6.3-1.7-1.68-.63-3.14-1.66-4.38-3.09-1.24-1.43-1.86-3.36-1.86-5.8,0-2.1.57-4,1.7-5.7,1.13-1.7,2.8-3.06,5.01-4.06s4.86-1.51,7.97-1.51c4.62,0,8.26,1.13,10.9,3.4,2.65,2.27,4.18,5.25,4.6,8.95h-11.15c-.21-1.13-.7-2.01-1.48-2.62-.78-.61-1.82-.91-3.12-.91-1.01,0-1.78.19-2.3.57-.53.38-.79.9-.79,1.58,0,.84.48,1.48,1.45,1.92.97.44,2.52.89,4.66,1.35,2.56.55,4.7,1.16,6.4,1.83,1.7.67,3.19,1.75,4.47,3.25,1.28,1.49,1.92,3.52,1.92,6.08,0,2.06-.6,3.91-1.8,5.55-1.2,1.64-2.9,2.93-5.1,3.88s-4.8,1.42-7.78,1.42c-3.19,0-6.04-.54-8.54-1.61Z"/>
        <path class="cls-3" d="M289.2,125.2v10.52h-5.36c-9.03,0-13.55-4.47-13.55-13.42v-11.66h-4.35v-10.27h4.35v-8.57h12.41v8.57h6.43v10.27h-6.43v11.85c0,.97.22,1.66.66,2.08.44.42,1.19.63,2.24.63h3.59Z"/>
      </g>
      <g>
        <path class="cls-1" d="M158.03,26.21L114.36,1c-4.91-2.83-11.04.71-11.04,6.37v59.16c0,5.66,6.13,9.2,11.04,6.37l43.67-25.21c8.27-4.77,8.27-16.71,0-21.48ZM145.03,39.84l-23.24,13.42c-2.22,1.28-5.01-.32-5.01-2.89v-26.83c0-2.57,2.78-4.17,5.01-2.89l23.24,13.42c2.22,1.28,2.22,4.5,0,5.78Z"/>
        <path class="cls-2" d="M158.03,26.21c5.04,2.91,7,8.47,5.9,13.45,1.1,4.98-.86,10.55-5.9,13.45l-14.54,8.39h37.71c2.57,0,4.66-2.09,4.66-4.66V16.61c0-2.57-2.09-4.66-4.66-4.66h-40.24c-1.65,0-3.09.86-3.92,2.15l20.99,12.12ZM181.48,53.1c0,1.04-.84,1.88-1.88,1.88h-2.99c-1.04,0-1.88-.84-1.88-1.88v-2.99c0-1.04.84-1.88,1.88-1.88h2.99c1.04,0,1.88.84,1.88,1.88v2.99ZM181.48,38.22c0,1.04-.84,1.88-1.88,1.88h-2.99c-1.04,0-1.88-.84-1.88-1.88v-2.99c0-1.04.84-1.88,1.88-1.88h2.99c1.04,0,1.88.84,1.88,1.88v2.99ZM181.48,23.35c0,1.04-.84,1.88-1.88,1.88h-2.99c-1.04,0-1.88-.84-1.88-1.88v-2.99c0-1.04.84-1.88,1.88-1.88h2.99c1.04,0,1.88.84,1.88,1.88v2.99Z"/>
      </g>
    </g>
  </g>
</svg>